<?xml version="1.0" encoding="UTF-8"?>
<svg width="95px" height="59px" viewBox="0 0 95 59" version="1.1" xmlns="http://www.w3.org/2000/svg" xmlns:xlink="http://www.w3.org/1999/xlink">
    <title>Camp Logo_Black</title>
    <defs>
        <polygon id="path-1" points="0.000220930233 0.116414309 94.9867442 0.116414309 94.9867442 58.6481178 0.000220930233 58.6481178"></polygon>
    </defs>
    <g id="Page-1" stroke="none" stroke-width="1" fill="none" fill-rule="evenodd">
        <g id="CAMP_LANDING_03-Copy-41" transform="translate(-727.000000, -20.000000)">
            <g id="Group-14" transform="translate(727.000000, 20.000000)">
                <path d="M80.7941681,36.4329217 C79.3235699,36.4329217 78.1308411,37.6263275 78.1308411,39.0987452 C78.1308411,40.5707283 79.3235699,41.7645688 80.7941681,41.7645688 C82.2647663,41.7645688 83.4579439,40.5707283 83.4579439,39.0987452 C83.4579439,37.6263275 82.2647663,36.4329217 80.7941681,36.4329217" id="Fill-1" fill="#FFFFFF"></path>
                <g id="Group-5">
                    <mask id="mask-2" fill="white">
                        <use xlink:href="#path-1"></use>
                    </mask>
                    <g id="Clip-4"></g>
                    <path d="M77.8003605,47.620111 C69.6705698,52.172175 58.9072907,54.6790513 47.4931512,54.6790513 C36.0794535,54.6790513 25.3161744,52.172175 17.1859419,47.620111 C8.66819767,42.851093 3.97696512,36.3737832 3.97696512,29.3823102 C3.97696512,22.3903962 8.66819767,15.9135274 17.1859419,11.1440684 C25.3161744,6.59200435 36.0794535,4.08512803 47.4931512,4.08512803 C58.9072907,4.08512803 69.6705698,6.59200435 77.8003605,11.1440684 C86.3181047,15.9135274 91.0097791,22.3903962 91.0097791,29.3823102 C91.0097791,36.3737832 86.3181047,42.851093 77.8003605,47.620111 M90.5042907,16.6944734 C87.9079186,13.2580464 84.2886395,10.2259828 79.746314,7.68294753 C71.0319419,2.80324774 59.577593,0.116017442 47.4931512,0.116017442 C35.4091512,0.116017442 23.9548023,2.80324774 15.2399884,7.68294753 C10.6981047,10.2259828 7.07838372,13.2580464 4.48245349,16.6944734 C1.55026744,20.5767142 0.000220930233,24.963858 0.000220930233,29.3823102 C0.000220930233,33.8003214 1.55026744,38.1874652 4.48245349,42.069706 C7.07838372,45.5065739 10.6981047,48.5381965 15.2399884,51.0816728 C23.9548023,55.9609316 35.4091512,58.6481619 47.4931512,58.6481619 C59.577593,58.6481619 71.0319419,55.9609316 79.746314,51.0816728 C84.2886395,48.5381965 87.9079186,45.5065739 90.5042907,42.069706 C93.4364767,38.1874652 94.9869651,33.8003214 94.9869651,29.3823102 C94.9869651,24.963858 93.4364767,20.5767142 90.5042907,16.6944734" id="Fill-3" fill="#FFFFFF" mask="url(#mask-2)"></path>
                </g>
                <path d="M66.4910681,11.638144 C63.1167227,10.6066116 59.4856482,9.85199179 55.6915639,9.39703261 C55.905653,13.6583377 55.7421991,22.7894559 52.8537737,22.7894559 C50.086162,22.7894559 49.7588101,13.7471423 49.9502466,8.94338582 C48.9837367,8.90576419 48.0110085,8.88607846 47.0316178,8.88607846 C44.0134953,8.88607846 41.0486729,9.06718721 38.1775701,9.41978057 C40.2402869,14.5673812 43.9526442,27.407729 42.3087779,50.5034691 C44.0490287,50.6506472 47.3962798,50.6517682 47.5779446,50.6506472 C47.3345404,47.1730804 46.5532487,33.0964685 49.8618571,33.0964685 C53.1184979,33.0964685 52.3860647,46.7373695 52.1235613,50.4794087 C53.5329068,50.3822924 54.9235972,50.2444923 56.2929676,50.0681956 C56.0717719,47.0177818 55.1772172,32.2950404 58.5608901,32.2950404 C61.7215906,32.2950404 61.1250728,45.1415127 60.8474677,49.3210127 C62.8280134,48.9229234 64.7468198,48.4395293 66.588785,47.8725801 C63.2446431,29.8050139 65.4152928,16.4878338 66.4910681,11.638144" id="Fill-6" fill="#FFFFFF"></path>
                <path d="M31.0743494,28.162855 C29.1538406,28.162855 27.5966475,26.6239729 27.5966475,24.7260474 C27.5966475,22.8276867 29.1538406,21.2888047 31.0743494,21.2888047 C32.9948582,21.2888047 34.5520513,22.8276867 34.5520513,24.7260474 C34.5520513,26.6239729 32.9948582,28.162855 31.0743494,28.162855 M31.0571744,10.6632942 C26.6044653,10.6632942 21.7157774,20.8736199 23.438114,45.9374649 C25.7488018,46.8805524 28.8301593,47.8071021 28.8301593,47.8071021 C28.8301593,47.8071021 27.5002037,32.9796951 31.0642206,32.9796951 C34.6273567,32.9796951 33.3409989,48.9094744 33.3409989,48.9094744 C35.7666267,49.4295434 38.6414447,49.7620394 38.6414447,49.7620394 C40.4637482,24.3004177 36.1277404,10.6632942 31.0571744,10.6632942" id="Fill-8" fill="#FFFFFF"></path>
                <path d="M7.99065421,29.5825485 C7.99065421,35.0043519 11.8948414,40.1981024 18.9844405,44.2072199 C19.1173677,44.2826459 19.253376,44.3562973 19.388504,44.4303923 C19.1754683,40.0907312 19.149059,35.9613756 19.2934303,32.1368302 C18.7177057,32.4886706 18.0451467,32.6949831 17.3228501,32.6949831 C15.2189025,32.6949831 13.5132965,30.9757124 13.5132965,28.8544651 C13.5132965,26.7336615 15.2189025,25.013947 17.3228501,25.013947 C18.2269313,25.013947 19.056186,25.332955 19.7093781,25.8631559 C20.2032335,20.806947 21.0478936,16.5267394 22.1962617,13.3291177 C21.0822258,13.8362471 20.0091246,14.3784274 18.9844405,14.9578771 C11.8948414,18.9669946 7.99065421,24.1607451 7.99065421,29.5825485" id="Fill-10" fill="#FFFFFF"></path>
                <path d="M77.4335515,29.5317605 C75.472519,29.5317605 73.8829179,27.9794875 73.8829179,26.064066 C73.8829179,24.1486445 75.472519,22.5959323 77.4335515,22.5959323 C79.3950338,22.5959323 80.9846348,24.1486445 80.9846348,26.064066 C80.9846348,27.9794875 79.3950338,29.5317605 77.4335515,29.5317605 M86.7188901,25.9828296 C85.415732,21.8595358 81.7297463,18.0005894 76.017525,14.8710137 C74.3775604,13.9725836 72.6188816,13.1615374 70.7612742,12.4405098 C70.3795002,14.2553739 69.8776629,17.1359711 69.5601924,20.8785519 C69.0745434,26.6032997 68.9414396,35.4971436 70.8682969,46.207608 C72.6858831,45.4966801 74.4090376,44.7005638 76.017525,43.8192592 C76.2702424,43.6809378 76.5180133,43.5404209 76.7630861,43.3990257 C74.7224611,36.7591613 76.0561971,34.6685328 78.8023622,34.1446681 C81.8088891,33.5707442 88.4762199,32.9976986 86.7188901,25.9828296" id="Fill-12" fill="#FFFFFF"></path>
            </g>
        </g>
    </g>
</svg>